<svg width="120" height="40" viewBox="0 0 120 40" fill="none" xmlns="http://www.w3.org/2000/svg">
  <path d="M60 20C58 15 52 14 50 18C48 22 52 26 55 27C52 30 54 35 58 35C62 35 64 30 61 27C64 26 68 22 66 18C64 14 58 15 60 20Z" fill="#A2C2E1" fill-opacity="0.8"/>
  <circle cx="60" cy="22" r="2.5" fill="#F7D358"/>
  
  <path d="M45 22C43 18 38 18 37 21C36 24 39 27 41 27C39 30 41 33 44 33C47 33 48 30 46 27C48 26 51 23 50 20C49 17 46 18 45 22Z" fill="#B8D4E9" fill-opacity="0.7"/>
  
  <path d="M75 23C74 20 71 20 70 22C69 24 71 26 72 26C71 28 72 30 74 30C76 30 77 28 76 26C77 25 79 23 78 21C77 19 75 20 75 23Z" fill="#FCE991" fill-opacity="0.9"/>
  
  <path d="M30 25C25 25 22 20 20 22C18 24 22 28 26 27" stroke="#92B06A" stroke-width="1.5" stroke-linecap="round"/>
  <path d="M90 25C95 25 98 20 100 22C102 24 98 28 94 27" stroke="#92B06A" stroke-width="1.5" stroke-linecap="round"/>
  <path d="M55 15C52 12 48 10 45 12" stroke="#92B06A" stroke-width="1" stroke-dasharray="2 1"/>
</svg>